<?xml version="1.0" encoding="UTF-8"?>
<svg id="Capa_1" data-name="Capa 1" xmlns="http://www.w3.org/2000/svg" viewBox="0 0 150 129.05">
  <defs>
    <style>
      .cls-1 {
        fill: #000;
      }

      .cls-1, .cls-2 {
        stroke-width: 0px;
      }

      .cls-2 {
        fill: #1d1d1b;
      }
    </style>
  </defs>
  <g>
    <path class="cls-1" d="M59.2,22.2c3.4-2.36,7.03-4.44,10.13-7.15,3.52-3.08,8.05-3.36,11.33.06,2.73,2.85,5.78,5.19,9.68,6.38-.99-.77-2.08-1.44-2.96-2.32-.91-.91-1.61-2.03-2.24-3.23,5.61,4.12,11.94,3.25,18.19,3.17,4.3-.06,8.67-.04,12.88.69,3.8.66,6.83,3.14,8.39,6.84.6,1.43.56,3.12.44,4.93-6.67-5.96-14.51-6.81-22.7-6.44,3.19.6,6.42,1.05,9.56,1.82,6.78,1.66,12.77,4.79,17.15,10.38,3.5,4.46,5.34,9.49,4.08,15.25-.28,1.27-.95,2.45-1.6,4.09-.69-.91-1.12-1.32-1.35-1.82-4.88-10.99-13.88-16.6-25.1-19.38-2.23-.55-4.46-1.13-6.62-1.9-1.43-.5-2.73-1.36-4.18-2.1.12-.37.33-1.06.57-1.83-1.28-.27-2.42-.52-3.77-.81.25-.97.47-1.8.76-2.94-1.11.31-1.97.55-2.89.81-.78-1.16-1.6-2.38-2.53-3.77-.88.76-1.5,1.29-2.25,1.92-1.06-1.94-2.08-3.91-4.93-3.03-.38,1.06-.84,2.32-1.36,3.79-.5-.38-.84-.64-1.25-.96-.49.9-.97,1.8-1.67,3.08-.66-1.22-1.09-2.01-1.64-3.02-.31.23-.64.47-1.23.91-.51-1.36-1-2.67-1.5-3.98-2.56-.66-3.55,1.17-4.6,3.2-.71-.6-1.31-1.11-2.24-1.89-.88,1.24-1.72,2.42-2.64,3.72-.74-.2-1.67-.46-2.85-.78.27,1.06.47,1.84.72,2.85-1.24.29-2.36.56-3.69.87.2.7.4,1.39.62,2.14-.19.07-.41.16-.63.25-2.07.79-4.11,1.65-6.21,2.35-4.03,1.33-8.18,2.35-12.13,3.88-7.1,2.75-12.43,7.6-15.89,14.43-.61,1.2-1.28,2.36-2.12,3.91-2.6-3.27-2.81-6.67-2.11-10.09,2.01-9.81,8.8-15.38,17.72-18.37,5.11-1.71,10.61-2.25,15.94-3.33.48-.1.93-.33,1.4-.5,2.45-.7,4.89-1.41,7.34-2.11Z"/>
    <path class="cls-1" d="M97.35,57.02c.59-1.64,1.07-2.99,1.63-4.57,5.91,1.84,10.02,5.71,13.5,10.48-.86-3.25-2.78-5.85-5.13-8.12-1.27-1.23-2.66-2.7-4.26-3.18-4.56-1.37-4.34-5.3-5.11-8.69-.32-1.43.43-2.57,2.17-2.24,3.62.7,7.22,1.49,11,1.91-3.84-1.38-7.68-2.75-11.83-4.24.17-.74.42-1.86.75-3.27,7.57,1.54,14.38,4.34,20.19,9.3,5.87,5.01,9.61,11.19,10.05,19.09.24,4.28-1.05,8.11-3.82,10.49-2.7-13.53-10.67-22.49-23.34-27.33,1.84,1.42,3.75,2.76,5.51,4.26,6.99,5.98,12.27,13.06,13.41,22.48.98,8.12-1.58,15.11-7.51,20.8-.76.73-1.71,1.25-3.26,2.36,1.36-8.1,3.09-15.46.27-22.8-2.77-7.22-8.01-12.33-14.24-16.73Z"/>
    <path class="cls-1" d="M37.56,62.78c5.69-6.62,8.55-8.85,13.39-10.17.11.13.26.23.32.38q1.56,3.81-1.61,6.32c-8.1,6.43-13.27,14.37-12.68,25.14.16,2.87.82,5.72,1.25,8.57.14.9.26,1.81.4,2.71l-.58.46c-1.35-1.17-2.85-2.21-4.04-3.53-7.1-7.86-8.19-19.24-2.91-29.27,3.21-6.08,7.84-10.88,13.35-14.9.82-.6,1.65-1.19,2.35-1.97-5.9,2.22-11.03,5.57-15.23,10.32-4.29,4.84-6.47,10.71-8.13,17.28-3.29-3.2-3.84-6.92-3.65-10.75.4-8.2,4.48-14.51,10.69-19.55,5.66-4.59,12.22-7.22,19.49-8.75.31,1.32.57,2.45.79,3.39-3.67,1.21-7.14,2.37-10.62,3.52.06.19.13.38.19.57,2.96-.61,5.9-1.39,8.89-1.77,2.79-.36,3.07.41,2.71,3.21-.48,3.78-1.94,6.31-5.61,8.11-4.35,2.13-7.09,6.13-8.75,10.68Z"/>
    <path class="cls-1" d="M98.72,103.34c2.85-11.5,3.42-22.27-5.52-31.25.76,1.85,1.61,3.66,2.25,5.55,2.4,7.06,3.05,14.16-.27,21.13-2.15,4.51-5.58,7.7-10.49,9.05-.78.21-1.66.03-3.1.03,1.1-1.16,1.69-1.88,2.37-2.5,8.39-7.52,9.49-17.04,7.52-27.4-.14-.75-.24-1.55-.58-2.21-2.44-4.75-.13-7.84,3.89-10.74,1.53,1.35,3.13,2.77,4.73,4.19.12-.1.23-.2.35-.3-1.49-1.64-2.98-3.29-4.41-4.86.37-1.74.73-3.45,1.17-5.56,7.85,6.9,13.2,14.89,13.2,25.49,0,8.35-4.9,16.79-11.12,19.39Z"/>
    <path class="cls-1" d="M66.46,105.89c-4.1.89-7.06-.44-9.42-3.6-5.35-7.17-5.28-15.02-2.94-23.11.77-2.64,2-5.15,3.19-8.13-9.26,9.55-9.07,20.5-6.31,32.11-5.94-3.29-8.96-8.5-10.3-14.82-2.14-10.06,3.48-23.19,12.36-29.34,2.98,4.3.03,7.11-2.5,10.17,1.51-1.36,3.01-2.73,4.87-4.41,1.44,1.7,2.72,3.22,4.01,4.73.97,1.14,1.01,2.24.51,3.73-2.52,7.5-3.53,15.17-.43,22.71,1.2,2.91,3.43,5.41,5.23,8.07.45.67,1.08,1.21,1.7,1.89Z"/>
    <path class="cls-1" d="M59.2,22.2c-2.45.7-4.89,1.41-7.34,2.11-4.31.36-8.62.63-12.92,1.09-4.49.48-8.54,2.14-12.03,5.08-.49.41-1.06.72-1.8,1.21-.97-2.57-.15-4.6,1.08-6.43,3.25-4.83,8.2-6.47,13.68-6.53,4.66-.05,9.33.51,14,.49,3.84-.02,7.65-.57,10.67-3.42.16.17.33.34.49.51-1.07,1.2-2.1,2.44-3.22,3.59-.81.83-1.74,1.54-2.61,2.31Z"/>
    <path class="cls-1" d="M75.33,100.3c-2.74-7.82-8.16-14.26-5.53-22.33h10.98c2.75,8.06-2.84,14.49-5.45,22.33Z"/>
    <path class="cls-1" d="M68.41,59.95c-1.21-1.4-2.41-2.8-3.62-4.2.15-.26.3-.51.45-.77,6.49,2.94,12.96,3.19,19.41,0,.15.19.3.38.45.57-.74,1.18-1.48,2.35-2.3,3.67,2.81.06,4.85-1.32,6.57-3.44.3,2.98-1.87,4.69-6.05,4.82l.08.06c-1.47-.84-5.8-.53-6.97.68-.39.41-.54,1.47-.29,1.98.84,1.74,4.9,3.13,6.98,2.76.84-.15,1.76.2,2.64.32-.3,1.02-.31,2.37-.99,2.96-.49.42-2.17.18-2.78-.36-2.06-1.85-4.4-2.43-7.05-2.41-2.56.01-4.83.58-6.78,2.39-1.77,1.64-3.04,1.25-3.73-.99-.18-.58-.23-1.47.09-1.86.29-.35,1.27-.47,1.77-.26,2.98,1.22,5.08-.48,7.19-2.06,1.08-.82,1.29-2.03-.11-2.6-1.56-.64-3.31-.85-4.97-1.24,0,0,0,0,0,0Z"/>
    <path class="cls-1" d="M85.94,15.01c5.54-1.03,10.63-2.01,15.72-2.92,4.83-.86,9.08.39,12.78,3.61.95.82,2.01,1.51,3.45,2.58-1.46,0-2.65.3-3.61-.05-4.93-1.78-9.81-1.25-14.81-.34-4.72.87-9.2-.11-13.54-2.88Z"/>
    <path class="cls-1" d="M64.16,14.99c-4.26,2.78-8.65,3.78-13.16,2.97-5.26-.94-10.38-1.53-15.54.35-.85.31-1.92.04-3.44.04,1.38-.97,2.34-1.5,3.1-2.22,4.44-4.16,9.58-5.01,15.38-3.68,4.37,1,8.81,1.65,13.67,2.53Z"/>
    <path class="cls-1" d="M65.08,77.43c-2.41,9.82,1.73,17.46,6.87,24.88-4.7-.13-10.92-6.39-12.08-11.99-1.12-5.38,1.01-10.91,5.21-12.89Z"/>
    <path class="cls-1" d="M85.31,77.44c4.14,3.07,5.89,7.14,5.01,12.04-1.2,6.73-5.67,10.71-11.98,13.04,4.87-7.66,9.19-15.42,6.97-25.08Z"/>
    <path class="cls-1" d="M65.27,12.74c-2.23,1.68-4.8,1.43-6.69,0-4.35-3.3-9.08-4.31-14.36-3.82-.98.09-2.01-.48-2.93-1.2,2.65-.69,5.27-1.5,7.94-2.05,3.3-.68,6.21.16,8.63,2.63,2.09,2.13,4.17,4.31,7.45,4.49,0,0-.05-.04-.05-.04Z"/>
    <path class="cls-1" d="M85.53,13.27c1.98-1.4,4.23-2.52,5.83-4.24,3.42-3.68,7.35-4.23,11.86-2.85,1.84.56,3.7,1.06,6.33,1.81-1.68.44-2.78,1.03-3.83.94-5.18-.43-9.88.4-14.11,3.76-1.79,1.42-4.19,1.53-6.09.58Z"/>
    <path class="cls-1" d="M85.87,42.71c-1.46,1.18-2.79,2.25-4.8,3.87.53-2.15.82-3.85,1.39-5.45.62-1.74,1.51-3.38,2.37-5.27.17.13.78.61,1.59,1.24.47-.68.95-1.38,1.48-2.14.94,1.13,1.86,2.23,2.45,2.94-.42,2.01-.78,3.83-1.22,5.64-.11.44-.39,1.03-.74,1.15-.32.11-.89-.23-1.25-.51-.39-.3-.66-.75-1.27-1.48Z"/>
    <path class="cls-1" d="M64.26,42.78c-.47.44-.76.75-1.1,1-.5.35-1.03.65-1.55.97-.23-.57-.51-1.13-.67-1.72-.43-1.58-.81-3.17-1.3-5.12.52-.72,1.46-2,2.46-3.38.53.97.95,1.73,1.43,2.62.81-.62,1.43-1.1,2.66-2.04-1.66,4.59,4.07,6.76,2.21,10.91-1.37-1.07-2.75-2.15-4.15-3.24Z"/>
    <path class="cls-1" d="M59.15.65c3.41-1.48,6.21-.25,8.53,2.07,2.3,2.3,3.58,5.09,2.41,8.98-2.24-5.44-5.1-9.69-10.94-11.05Z"/>
    <path class="cls-1" d="M79.94,11.18c-1.08-3.43.08-6.26,2.54-8.6,2.32-2.21,5.01-3.36,8.98-1.96-6.19,1.53-9.42,5.39-11.51,10.56Z"/>
    <path class="cls-1" d="M83.31,60.6c3.11,1.6,5.1-.27,7.06-2.48-.17,3.09-2.48,5.27-5.4,5.09-2.49-.15-4.97-.51-7.57-1.35,2-.4,4-.81,5.99-1.21,0,0-.08-.06-.08-.06Z"/>
    <path class="cls-1" d="M66.33,60.81c2.11.31,4.21.62,6.32.93-.03.23-.06.46-.09.7-2.55.27-5.09.65-7.64.78-2.73.13-4.67-1.71-5.36-5.01,2.06,1.82,3.86,3.97,6.86,2.55l-.08.05Z"/>
    <path class="cls-1" d="M67.71,1.47c5.29-.67,8.36,4.37,5.88,10.2-.56-4.51-1.2-8.57-5.88-10.2Z"/>
    <path class="cls-1" d="M76.3,11.73c-1.51-3.33-1.21-5.88.52-8.23,1.32-1.8,3.18-2.55,5.61-2.12-4.8,1.58-5.38,5.74-6.13,10.35Z"/>
    <path class="cls-1" d="M66.42,60.75c-4.32-.7-5.64-1.81-5.84-4.18,2.41,1.04,5.12,2.21,7.83,3.38,0,0,0,0,0,0-.69.28-1.37.57-2.07.86,0,0,.07-.05.07-.05Z"/>
  </g>
  <g>
    <path class="cls-2" d="M11.29,95.17c-2.81,4.14-4.22,6.2-7.03,10.34-1.3-.88-1.94-1.34-3.22-2.26,2.94-4.05,4.41-6.07,7.35-10.12,1.15.84,1.73,1.24,2.9,2.04Z"/>
    <path class="cls-2" d="M15.27,97.76c-.34.55-.52.83-.86,1.39-1.21-.75-1.81-1.14-3-1.93.36-.54.54-.81.9-1.36,1.18.78,1.77,1.16,2.96,1.9ZM14.08,99.68c-2.16,3.48-3.24,5.23-5.4,8.71-1.32-.82-1.98-1.24-3.29-2.11,2.27-3.42,3.4-5.12,5.67-8.54,1.2.8,1.8,1.18,3.02,1.94Z"/>
    <path class="cls-2" d="M20.31,107.35c-.46.89-.69,1.34-1.15,2.23-.42.82-.78,1.39-1.08,1.73-.29.33-.69.58-1.18.74-.49.16-1.04.19-1.62.07-.59-.12-1.21-.36-1.86-.72-.73-.41-1.3-.83-1.72-1.25-.42-.42-.69-.85-.81-1.28-.12-.43-.12-.86-.01-1.3.11-.44.39-1.03.84-1.78.54-.9.82-1.35,1.36-2.25.49-.81.98-1.39,1.46-1.73.47-.34,1.05-.49,1.73-.47.68.02,1.41.26,2.22.71.67.38,1.21.79,1.6,1.24.39.45.64.89.76,1.33.11.44.14.84.08,1.21-.06.37-.26.87-.59,1.52ZM17.55,104.99c.25-.46.39-.76.4-.91.01-.15-.07-.28-.26-.38-.18-.1-.34-.11-.46-.03-.13.08-.32.36-.58.81-.91,1.61-1.37,2.42-2.28,4.03-.24.42-.36.71-.37.88,0,.16.08.3.27.4.19.11.35.12.48.04.13-.08.3-.32.51-.71.92-1.65,1.38-2.48,2.29-4.13Z"/>
    <path class="cls-2" d="M26.11,106.19c-.18.33-.27.5-.45.83.39-.24.78-.36,1.19-.38.4-.02.82.06,1.25.25.54.24.92.54,1.17.92.24.38.34.77.29,1.16-.05.4-.25,1.01-.6,1.83-1.12,2.65-1.67,3.97-2.79,6.62-1.37-.58-2.05-.88-3.41-1.49,1.18-2.58,1.77-3.87,2.95-6.46.29-.64.45-1.04.47-1.21.02-.16-.08-.29-.29-.39-.22-.1-.4-.09-.53.05-.13.13-.36.55-.69,1.25-1.17,2.51-1.76,3.77-2.93,6.28-1.35-.63-2.02-.96-3.36-1.63,1.85-3.66,2.77-5.49,4.61-9.15,1.25.63,1.88.93,3.14,1.52Z"/>
    <path class="cls-2" d="M35.18,107.56c-.4,1.05-.59,1.58-.99,2.63.36-.13.72-.19,1.08-.19.36,0,.72.06,1.09.19.56.2.99.49,1.29.89.31.4.45.78.42,1.16-.03.37-.19,1.02-.49,1.93-.89,2.68-1.34,4.02-2.23,6.71-1.4-.46-2.1-.71-3.49-1.21.99-2.71,1.48-4.07,2.47-6.78.2-.56.31-.93.3-1.12,0-.18-.11-.31-.32-.39-.2-.07-.36-.04-.49.1-.13.14-.29.45-.47.94-1.03,2.74-1.54,4.11-2.57,6.85-1.39-.52-2.08-.79-3.45-1.35,1.89-4.63,2.84-6.94,4.74-11.57,1.24.51,1.86.75,3.11,1.22Z"/>
    <path class="cls-2" d="M41.47,116.21c-1.26-.37-1.89-.56-3.14-.96.08-.26.13-.39.21-.65.24-.75.53-1.31.85-1.65.32-.35.82-.59,1.49-.73.67-.14,1.46-.07,2.37.19,1.1.31,1.88.71,2.35,1.22.47.51.7,1.04.68,1.59-.02.56-.23,1.66-.64,3.3-.5,2-.75,2.99-1.25,4.99-1.39-.35-2.08-.53-3.45-.92.1-.35.15-.53.25-.88-.31.29-.67.48-1.06.56-.39.08-.82.05-1.3-.09-.62-.19-1.14-.51-1.56-.96-.42-.45-.47-1.17-.15-2.16.1-.32.15-.48.26-.8.24-.73.53-1.19.87-1.37.35-.18,1.1-.28,2.23-.33,1.22-.05,1.88-.15,2-.26.12-.11.23-.37.35-.78.15-.52.2-.86.16-1.04-.04-.18-.16-.3-.35-.35-.22-.06-.38-.04-.47.08-.09.11-.22.45-.38,1-.12.41-.18.62-.3,1.03ZM42.16,117.87c-.64.2-1.05.4-1.2.61-.16.21-.3.54-.43.98-.15.51-.21.85-.17,1.02.03.17.17.29.4.36.22.06.38.04.48-.05.1-.1.22-.39.36-.89.23-.81.34-1.22.57-2.03Z"/>
    <path class="cls-2" d="M51.75,112.37c-.24,1.16-.36,1.74-.61,2.9.33-.24.68-.39,1.05-.47.36-.08.74-.08,1.13,0,.45.09.83.22,1.14.42.31.19.53.42.67.69.13.27.2.52.2.76,0,.23-.07.73-.19,1.47-.31,1.82-.47,2.73-.78,4.55-.13.74-.28,1.28-.45,1.63-.18.34-.5.61-.98.8-.47.19-1.01.23-1.6.12-.42-.08-.8-.24-1.13-.47-.33-.23-.62-.53-.85-.91-.16.28-.23.43-.39.71-1.34-.28-2.01-.43-3.35-.75,1.17-4.86,1.75-7.3,2.92-12.16,1.29.31,1.93.45,3.22.72ZM51.72,117.64c.1-.52.14-.87.1-1.04-.04-.17-.17-.28-.37-.32-.2-.04-.35,0-.44.13-.09.13-.19.47-.31,1.03-.36,1.73-.54,2.59-.91,4.32-.11.54-.15.89-.11,1.06.04.17.17.27.39.32.22.05.38,0,.48-.15.1-.14.21-.51.33-1.11.34-1.69.51-2.54.85-4.23Z"/>
    <path class="cls-2" d="M60.4,113.83c-.08.65-.13.97-.21,1.62-1.36-.18-2.04-.28-3.4-.49.1-.64.15-.97.26-1.61,1.34.21,2.01.31,3.35.49ZM60.11,116.07c-.53,4.07-.79,6.1-1.32,10.16-1.49-.19-2.24-.3-3.73-.54.65-4.05.97-6.07,1.62-10.12,1.37.22,2.05.32,3.42.5Z"/>
    <path class="cls-2" d="M64.95,115.22c-.06.64-.09.96-.14,1.61.36.03.54.05.9.08-.05.65-.08.97-.13,1.62-.37-.03-.55-.04-.92-.08-.19,2.19-.29,3.28-.48,5.46-.06.67-.05,1.05.02,1.13.07.08.4.15.99.2-.05.66-.08.99-.13,1.65-.59-.05-.88-.07-1.47-.12-.83-.08-1.42-.17-1.76-.26-.35-.1-.64-.27-.89-.51-.24-.24-.38-.51-.42-.79-.03-.28.01-.93.13-1.94.24-2.07.37-3.1.61-5.17-.29-.03-.44-.05-.73-.09.08-.64.12-.97.2-1.61.29.04.43.05.72.09.08-.64.11-.96.19-1.6,1.32.16,1.98.22,3.31.34Z"/>
    <path class="cls-2" d="M69.26,120.86c-1.3-.06-1.95-.1-3.25-.2.02-.27.03-.41.05-.69.06-.79.21-1.39.44-1.81.23-.41.65-.76,1.27-1.06.61-.29,1.39-.41,2.33-.37,1.13.05,1.98.26,2.55.64.57.39.91.85,1.02,1.39.11.54.16,1.66.14,3.36-.02,2.06-.03,3.09-.05,5.14-1.42-.01-2.13-.03-3.55-.08.01-.37.02-.55.03-.91-.23.36-.53.62-.89.79-.36.17-.78.24-1.27.21-.64-.03-1.22-.23-1.72-.57-.51-.34-.72-1.03-.64-2.06.03-.34.04-.5.06-.84.06-.77.23-1.28.53-1.53.29-.26.99-.53,2.08-.84,1.16-.34,1.78-.59,1.87-.72.09-.14.14-.42.15-.84.02-.53,0-.89-.09-1.05-.08-.17-.22-.25-.42-.26-.23,0-.38.05-.44.18-.06.13-.11.49-.14,1.06-.02.43-.03.64-.05,1.07ZM70.31,122.32c-.58.34-.92.63-1.02.88-.1.24-.16.6-.19,1.06-.03.53,0,.87.07,1.03.07.16.23.24.47.25.23,0,.38-.04.45-.16.07-.12.12-.43.14-.95.03-.84.05-1.26.08-2.11Z"/>
    <path class="cls-2" d="M78.51,115.61c.02.65.03.97.05,1.61.36-.01.54-.02.91-.03.02.65.04.97.06,1.62-.37.01-.55.02-.92.03.07,2.19.1,3.29.17,5.48.02.67.07,1.05.15,1.12.08.07.42.1,1.01.08.03.66.04.99.07,1.65-.59.02-.88.03-1.47.05-.83.02-1.42,0-1.78-.05s-.67-.19-.94-.4c-.27-.21-.44-.46-.51-.73s-.1-.92-.1-1.94c0-2.08,0-3.12,0-5.21-.29,0-.44,0-.73,0,0-.65,0-.97,0-1.62.29,0,.43,0,.72,0,0-.65,0-.97,0-1.61,1.33,0,1.99-.01,3.32-.05Z"/>
    <path class="cls-2" d="M83.54,116.72c-.01.54-.02.81-.03,1.35.42-1,1.08-1.56,1.99-1.7.13,1.44.2,2.16.33,3.59-.63.06-1.09.17-1.37.35-.28.18-.45.41-.5.69-.05.28-.04.92.04,1.91.12,1.61.18,2.42.3,4.04-1.46.11-2.18.15-3.64.22-.18-4.1-.28-6.14-.46-10.24,1.34-.06,2.01-.1,3.35-.2Z"/>
    <path class="cls-2" d="M89.73,120.09c-1.29.16-1.94.23-3.24.36-.03-.27-.04-.41-.07-.68-.08-.79-.03-1.41.12-1.86.16-.45.51-.86,1.07-1.26.55-.39,1.3-.64,2.23-.76,1.12-.15,2-.09,2.62.2.63.28,1.05.68,1.25,1.2.2.52.44,1.61.72,3.28.33,2.03.5,3.05.83,5.08-1.4.23-2.11.33-3.52.52-.05-.36-.07-.54-.12-.91-.17.39-.42.7-.75.93-.33.23-.73.37-1.22.43-.64.07-1.24-.01-1.8-.27-.56-.25-.89-.89-.99-1.92-.03-.34-.05-.5-.08-.84-.07-.76.01-1.3.26-1.6.24-.3.88-.69,1.9-1.18,1.09-.53,1.66-.88,1.72-1.03.06-.15.06-.43,0-.86-.07-.53-.16-.87-.27-1.02-.11-.15-.26-.21-.46-.19-.23.03-.36.11-.4.26-.04.14-.02.5.05,1.06.05.43.08.64.13,1.07ZM91,121.35c-.51.44-.8.78-.86,1.04-.06.26-.06.61,0,1.07.07.53.15.86.25,1,.1.14.27.2.5.17.22-.03.36-.11.41-.24.05-.13.04-.45-.02-.96-.11-.84-.17-1.25-.28-2.09Z"/>
    <path class="cls-2" d="M98.11,114.7c.05.37.08.56.13.94.17-.42.4-.76.71-1.01.31-.26.68-.43,1.13-.53.56-.13,1.05-.11,1.47.05.42.16.72.42.92.76.19.35.4.96.61,1.83.68,2.79,1.02,4.19,1.7,6.98-1.43.35-2.14.51-3.58.81-.59-2.78-.89-4.17-1.48-6.94-.15-.69-.26-1.11-.34-1.25-.08-.14-.24-.19-.46-.14-.24.05-.37.17-.39.35-.03.19.04.66.19,1.42.55,2.72.83,4.07,1.38,6.79-1.44.29-2.16.43-3.6.68-.7-4.04-1.05-6.06-1.75-10.1,1.35-.23,2.02-.36,3.36-.63Z"/>
    <path class="cls-2" d="M111.85,115.08c-1.26.41-1.89.6-3.15.97-.13-.45-.2-.68-.33-1.13-.12-.4-.23-.65-.34-.77-.11-.12-.26-.15-.45-.1-.19.05-.3.15-.33.3-.03.14.02.43.14.86.53,1.86.79,2.79,1.32,4.65.1.35.23.6.38.75.15.15.33.19.53.13.24-.07.37-.21.4-.41.03-.21-.03-.56-.18-1.07-.14-.47-.21-.7-.35-1.17,1.22-.36,1.82-.55,3.03-.94.25.78.4,1.38.47,1.78.07.41,0,.87-.19,1.38-.19.51-.52.96-.99,1.33-.46.37-1.09.67-1.87.9-1,.29-1.83.36-2.5.22-.66-.13-1.18-.44-1.56-.9-.38-.46-.68-1.18-.93-2.15-.29-1.13-.43-1.69-.72-2.82-.21-.84-.28-1.5-.2-1.98.08-.48.37-.96.88-1.46.51-.5,1.19-.86,2.04-1.11.85-.24,1.61-.29,2.32-.15.7.14,1.23.43,1.59.87.36.44.69,1.11.99,2.03Z"/>
    <path class="cls-2" d="M114.04,107.85c.39,1.06.58,1.58.97,2.64.19-.33.42-.62.69-.85.27-.24.59-.42.95-.56.55-.21,1.07-.27,1.57-.17.49.1.85.3,1.08.6.22.3.52.9.89,1.79,1.08,2.61,1.61,3.92,2.69,6.54-1.37.56-2.06.84-3.45,1.36-1.02-2.7-1.53-4.05-2.55-6.75-.21-.56-.38-.91-.5-1.04-.12-.14-.29-.16-.5-.08-.2.07-.3.2-.31.39,0,.19.08.53.26,1.02,1.01,2.75,1.51,4.12,2.52,6.87-1.39.51-2.09.75-3.49,1.22-1.58-4.74-2.38-7.12-3.96-11.86,1.26-.42,1.89-.64,3.14-1.1Z"/>
    <path class="cls-2" d="M125.28,114.02c.42.93.62,1.4,1.04,2.33-1.03.46-1.54.68-2.58,1.12-.39-.94-.59-1.41-.99-2.35,1.01-.43,1.52-.64,2.52-1.09Z"/>
    <path class="cls-2" d="M131.65,106.31c.48.88.72,1.33,1.19,2.21.44.81.71,1.43.82,1.86.11.43.09.9-.05,1.4-.14.5-.43.96-.86,1.38-.43.42-.97.8-1.64,1.13-.74.37-1.41.61-1.99.71-.58.11-1.08.09-1.5-.06-.41-.14-.77-.39-1.07-.73-.3-.34-.63-.91-.99-1.7-.44-.96-.65-1.43-1.09-2.39-.39-.87-.6-1.59-.61-2.17-.02-.58.18-1.14.57-1.69.39-.54,1-1.02,1.82-1.42.69-.34,1.33-.55,1.91-.62.59-.07,1.09-.03,1.52.12.42.15.77.36,1.04.62.27.26.57.71.92,1.35ZM128.15,107.26c-.24-.47-.41-.75-.53-.84-.12-.09-.27-.09-.45,0-.19.09-.28.21-.28.37,0,.15.11.47.34.94.82,1.66,1.22,2.49,2.04,4.15.21.43.39.7.52.8.13.1.29.1.48,0,.2-.1.3-.22.3-.37,0-.15-.1-.42-.29-.82-.85-1.69-1.27-2.53-2.12-4.22Z"/>
    <path class="cls-2" d="M133.94,100.88c.23.49.34.74.57,1.23-.05-1.09.31-1.9,1.09-2.45.76,1.23,1.14,1.84,1.89,3.07-.56.34-.93.66-1.11.95-.18.29-.24.57-.16.85.08.27.37.84.88,1.69.83,1.39,1.24,2.09,2.06,3.48-1.3.77-1.95,1.15-3.27,1.87-1.98-3.59-2.98-5.38-4.96-8.97,1.21-.67,1.81-1.01,3-1.72Z"/>
    <path class="cls-2" d="M142.94,94.96c1.86,2.55,2.78,3.83,4.64,6.39.63.86,1.01,1.44,1.14,1.72.13.29.16.68.06,1.18-.1.5-.36,1.01-.8,1.54-.44.53-1.07,1.08-1.9,1.63-1.02.69-1.94,1.08-2.75,1.19-.8.11-1.48-.25-2.02-1.07,1.24-.78,1.85-1.17,3.08-1.99.25.38.54.45.88.23.24-.16.36-.33.36-.5,0-.17-.13-.43-.38-.8-.17-.26-.26-.38-.44-.64-.13.38-.31.72-.54,1.03-.23.3-.51.56-.83.78-.57.37-1.1.58-1.59.62-.49.04-.9-.05-1.23-.28-.33-.23-.68-.63-1.04-1.21-.79-1.26-1.18-1.89-1.97-3.16-.52-.83-.72-1.52-.62-2.09.1-.57.49-1.07,1.16-1.51.37-.24.74-.39,1.13-.46.39-.07.79-.05,1.21.05-.09-.31-.14-.47-.23-.78,1.08-.74,1.61-1.11,2.67-1.88ZM141.59,99.23c-.26-.39-.46-.62-.58-.69-.12-.07-.27-.05-.45.07-.17.11-.25.26-.24.43.01.17.14.43.38.79.77,1.15,1.15,1.72,1.91,2.86.25.38.45.61.58.69.13.08.29.05.46-.07.2-.14.29-.29.26-.47-.03-.18-.21-.51-.54-.99-.71-1.05-1.07-1.57-1.79-2.62Z"/>
  </g>
</svg>